<svg width="1380" height="940" viewBox="0 0 1380 940" fill="none" xmlns="http://www.w3.org/2000/svg">
<g id="hero">
<g id="dec">
<path id="dec-line-1" d="M912.5 119L938 91.5" stroke="#292A28" stroke-width="2" stroke-linecap="round" stroke-linejoin="round" stroke-dasharray="3 8"/>
<circle id="dot" cx="944.5" cy="85.5" r="2.5" fill="#292A28"/>
<path id="dec-line-2" d="M761 212C771.167 222.667 791.5 303 724.5 403" stroke="#292A28" stroke-width="2" stroke-linecap="round" stroke-linejoin="round" stroke-dasharray="3 8"/>
<path id="dec-line-3" d="M574 231C568.166 236.833 529.999 326 571.999 435" stroke="#292A28" stroke-width="2" stroke-linecap="round" stroke-linejoin="round" stroke-dasharray="3 8"/>
<path id="dec-line-4" d="M207 366C220.333 379 251.8 406.7 271 413.5" stroke="#292A28" stroke-width="2" stroke-linecap="round" stroke-linejoin="round" stroke-dasharray="3 8"/>
<path id="dec-line-5" d="M1042.5 410L1026.5 422L1010 436.5" stroke="#292A28" stroke-width="2" stroke-linecap="round" stroke-linejoin="round" stroke-dasharray="3 8"/>
</g>
<path id="star1" d="M192.531 359.765C194.131 358.965 197.031 355.432 198.531 353.765C198.531 354.565 204.031 358.765 205.031 359.765C203.531 360.265 200.198 363.765 199.031 365.765C199.031 364.765 193.531 359.765 192.531 359.765Z" fill="#F7F5F4" stroke="#292A28" stroke-width="2" stroke-linecap="round" stroke-linejoin="round"/>
<path id="star2" d="M165.531 228.765C167.131 227.965 170.031 224.432 171.531 222.765C171.531 223.565 177.031 227.765 178.031 228.765C176.531 229.265 173.198 232.765 172.031 234.765C172.031 233.765 166.531 228.765 165.531 228.765Z" fill="#F7F5F4" stroke="#292A28" stroke-width="2" stroke-linecap="round" stroke-linejoin="round"/>
<path id="star3" d="M335.531 125.765C337.131 124.965 340.031 121.432 341.531 119.765C341.531 120.565 347.031 124.765 348.031 125.765C346.531 126.265 343.198 129.765 342.031 131.765C342.031 130.765 336.531 125.765 335.531 125.765Z" fill="#F7F5F4" stroke="#292A28" stroke-width="2" stroke-linecap="round" stroke-linejoin="round"/>
<path id="star7" d="M810.531 52.7651C812.131 51.9651 815.031 48.4318 816.531 46.7651C816.531 47.5651 822.031 51.7651 823.031 52.7651C821.531 53.2651 818.198 56.7651 817.031 58.7651C817.031 57.7651 811.531 52.7651 810.531 52.7651Z" fill="#F7F5F4" stroke="#292A28" stroke-width="2" stroke-linecap="round" stroke-linejoin="round"/>
<path id="star7_2" d="M752 209C753.6 208.2 756.5 204.667 758 203C758 203.8 763.5 208 764.5 209C763 209.5 759.667 213 758.5 215C758.5 214 753 209 752 209Z" fill="#F7F5F4" stroke="#292A28" stroke-width="2" stroke-linecap="round" stroke-linejoin="round"/>
<path id="star8" d="M1057.53 117.765C1059.13 116.965 1062.03 113.432 1063.53 111.765C1063.53 112.565 1069.03 116.765 1070.03 117.765C1068.53 118.265 1065.2 121.765 1064.03 123.765C1064.03 122.765 1058.53 117.765 1057.53 117.765Z" fill="#F7F5F4" stroke="#292A28" stroke-width="2" stroke-linecap="round" stroke-linejoin="round"/>
<path id="star9" d="M1040.53 404.765C1042.13 403.965 1045.03 400.432 1046.53 398.765C1046.53 399.565 1052.03 403.765 1053.03 404.765C1051.53 405.265 1048.2 408.765 1047.03 410.765C1047.03 409.765 1041.53 404.765 1040.53 404.765Z" fill="#F7F5F4" stroke="#292A28" stroke-width="2" stroke-linecap="round" stroke-linejoin="round"/>
<path id="star12" d="M234.531 509.765C236.131 508.965 239.031 505.432 240.531 503.765C240.531 504.565 246.031 508.765 247.031 509.765C245.531 510.265 242.198 513.765 241.031 515.765C241.031 514.765 235.531 509.765 234.531 509.765Z" fill="#F7F5F4" stroke="#292A28" stroke-width="2" stroke-linecap="round" stroke-linejoin="round"/>
<path id="star13" d="M571.531 227.765C573.131 226.965 576.031 223.432 577.531 221.765C577.531 222.565 583.031 226.765 584.031 227.765C582.531 228.265 579.198 231.765 578.031 233.765C578.031 232.765 572.531 227.765 571.531 227.765Z" fill="#F7F5F4" stroke="#F17742" stroke-width="2" stroke-linecap="round" stroke-linejoin="round"/>
<path id="star14" d="M786 228C787.6 227.2 790.5 223.667 792 222C792 222.8 797.5 227 798.5 228C797 228.5 793.667 232 792.5 234C792.5 233 787 228 786 228Z" fill="#F7F5F4" stroke="#F17742" stroke-width="2" stroke-linecap="round" stroke-linejoin="round"/>
<path id="star10" d="M1149.53 232.765C1151.13 231.965 1154.03 228.432 1155.53 226.765C1155.53 227.565 1161.03 231.765 1162.03 232.765C1160.53 233.265 1157.2 236.765 1156.03 238.765C1156.03 237.765 1150.53 232.765 1149.53 232.765Z" fill="#F7F5F4" stroke="#292A28" stroke-width="2" stroke-linecap="round" stroke-linejoin="round"/>
<path id="star11" d="M1004.53 522.765C1006.13 521.965 1009.03 518.432 1010.53 516.765C1010.53 517.565 1016.03 521.765 1017.03 522.765C1015.53 523.265 1012.2 526.765 1011.03 528.765C1011.03 527.765 1005.53 522.765 1004.53 522.765Z" fill="#F7F5F4" stroke="#292A28" stroke-width="2" stroke-linecap="round" stroke-linejoin="round"/>
<path id="star4" d="M271.531 163.765C273.131 162.965 276.031 159.432 277.531 157.765C277.531 158.565 283.031 162.765 284.031 163.765C282.531 164.265 279.198 167.765 278.031 169.765C278.031 168.765 272.531 163.765 271.531 163.765Z" fill="#F7F5F4" stroke="#292A28" stroke-width="2" stroke-linecap="round" stroke-linejoin="round"/>
<path id="star5" d="M547.085 306.531C548.601 306.057 551.683 303.318 553.252 302.047C553.123 302.769 557.208 307.412 557.913 308.469C556.533 308.688 553.08 311.329 551.746 312.953C551.908 312.05 547.952 306.686 547.085 306.531Z" fill="#7EA392" stroke="#292A28" stroke-width="2" stroke-linecap="round" stroke-linejoin="round"/>
<path id="star6" d="M346.531 209.765C348.323 208.832 351.571 204.71 353.251 202.765C353.251 203.698 359.411 208.598 360.531 209.765C358.851 210.348 355.118 214.432 353.811 216.765C353.811 215.598 347.651 209.765 346.531 209.765Z" fill="#7EA392" stroke="#292A28" stroke-width="2" stroke-linecap="round" stroke-linejoin="round"/>
<path id="star-large-1" d="M944.531 63.7651C958.931 62.5651 963.198 50.5985 963.531 44.7651C963.531 59.5651 974.198 63.5985 979.531 63.7651C965.931 66.5651 963.198 77.5985 963.531 82.7651C960.731 66.7651 949.698 63.4318 944.531 63.7651Z" stroke="#EF743F" stroke-width="2" stroke-linecap="round" stroke-linejoin="round"/>
<path id="star-large-3" d="M837 266C851.4 264.8 855.667 252.833 856 247C856 261.8 866.667 265.833 872 266C858.4 268.8 855.667 279.833 856 285C853.2 269 842.167 265.667 837 266Z" stroke="#EF743F" stroke-width="2" stroke-linecap="round" stroke-linejoin="round"/>
<path id="star-large-2" d="M339.531 61.7651C353.931 60.5651 358.198 48.5985 358.531 42.7651C358.531 57.5651 369.198 61.5985 374.531 61.7651C360.931 64.5651 358.198 75.5985 358.531 80.7651C355.731 64.7651 344.698 61.4318 339.531 61.7651Z" stroke="#EF743F" stroke-width="2" stroke-linecap="round" stroke-linejoin="round"/>
<path id="line1" d="M372.531 429.765C380.031 439.765 400.631 460.365 419.031 472.765" stroke="#292A28" stroke-width="2" stroke-linecap="round" stroke-dasharray="3 8"/>
<path id="line4" d="M690.531 519.765C698.031 509.765 710.031 462.265 787.031 436.265" stroke="#292A28" stroke-width="2" stroke-linecap="round" stroke-dasharray="3 8"/>
<path id="line5" d="M714.531 462.765C722.031 452.765 776.531 321.765 908.031 289.765" stroke="#292A28" stroke-width="2" stroke-linecap="round" stroke-dasharray="3 8"/>
<path id="line3" d="M651.031 418.765C643.531 428.765 637.531 448.265 622.531 462.265" stroke="#292A28" stroke-width="2" stroke-linecap="round" stroke-dasharray="3 8"/>
<path id="line2" d="M541.531 427.265C541.531 397.265 505.931 271.165 487.531 258.765" stroke="#292A28" stroke-width="2" stroke-linecap="round" stroke-dasharray="3 8"/>
<path id="line6" d="M603.53 448.765C644.529 418.265 654.93 220.165 636.53 207.765" stroke="#292A28" stroke-width="2" stroke-linecap="round" stroke-dasharray="3 8"/>
<g id="connection-1">
<path id="path" d="M252.031 708.765L307.029 738.265C312.53 741.598 330.309 748.847 352.031 738.265C371.531 728.765 392.913 745.446 424.531 761.765C449.073 774.432 474.508 787.641 490.531 797.765" stroke="#292A28" stroke-width="2" stroke-linecap="round" stroke-dasharray="3 8"/>
<ellipse id="dot_2" cx="246.531" cy="704.765" rx="6" ry="5" fill="#F7F5F4" stroke="#292A28" stroke-width="2"/>
</g>
<g id="connection-2">
<path id="path_2" d="M254.031 512.765C263.531 517.098 283.531 526.265 287.531 528.265C291.531 530.265 300.531 534.098 304.531 535.765C308.698 538.598 318.031 542.765 322.031 536.765C327.031 529.265 323.531 524.265 314.031 520.265C306.431 517.065 297.198 510.598 293.531 507.765C291.865 504.098 291.231 495.665 302.031 491.265C315.531 485.765 327.531 480.265 329.531 478.265" stroke="#292A28" stroke-width="2" stroke-linecap="round" stroke-dasharray="3 8"/>
<ellipse id="dot_3" cx="336.531" cy="475.765" rx="6" ry="5" fill="#F7F5F4" stroke="#292A28" stroke-width="2"/>
</g>
<g id="connection-3">
<path id="path_3" d="M971.531 555.765L1055.53 596.765C1063.7 599.098 1082.43 603.665 1092.03 603.265C1104.03 602.765 1152.03 603.765 1134.03 618.765C1119.63 630.765 1113.36 634.432 1112.03 634.765" stroke="#292A28" stroke-width="2" stroke-linecap="round" stroke-dasharray="3 8"/>
<ellipse id="dot_4" cx="1020.53" cy="578.765" rx="6" ry="5" fill="#F7F5F4" stroke="#292A28" stroke-width="2"/>
</g>
<g id="card-social">
<path id="Vector 99" d="M910.887 280.737L941.887 177.737C945.017 167.337 955.524 167.071 960.387 168.237C982.887 176.071 1030.19 192.737 1039.39 196.737C1048.59 200.737 1048.55 212.071 1047.39 217.237C1039.39 245.571 1022.29 306.037 1017.89 321.237C1013.49 336.437 1001.39 335.237 995.887 332.737C974.554 324.571 929.187 307.437 918.387 304.237C907.587 301.037 908.887 287.237 910.887 280.737Z" fill="#F6F5F4" stroke="#2E2E2C" stroke-width="2"/>
<path id="Vector 100" d="M1047.39 217.737C1050.99 206.137 1043.22 198.904 1038.39 196.237C1051.59 200.637 1053.39 211.737 1051.39 218.737C1042.72 249.071 1024.49 312.737 1020.89 324.737C1017.39 336.398 1006.37 336.098 1000.85 334.39C1000.7 334.343 1000.54 334.292 1000.39 334.237C1000.54 334.289 1000.69 334.34 1000.85 334.39C1007.51 336.389 1014.46 331.054 1017.39 323.237C1025.89 292.904 1043.79 229.337 1047.39 217.737Z" fill="#F6F5F3" stroke="#2E2E2C" stroke-width="2"/>
<path id="Vector 101" d="M966.887 274.737L936.387 263.737C937.187 252.138 948.053 247.237 953.387 246.237C950.831 244.448 949.573 238.07 951.387 233.237C953.121 228.616 957.754 225.452 962.887 227.237C967.433 228.818 968.982 234.357 967.887 239.237C966.934 243.483 963.876 247.109 960.387 248.737C969.987 256.337 968.72 269.404 966.887 274.737Z" fill="#F7F5F3" stroke="#2E2E2C" stroke-width="2" stroke-linejoin="round"/>
<path id="Vector 102" d="M1003.39 287.737L958.387 271.656C962.387 256.237 975.513 252.154 983.387 250.737C980.387 248.237 977.71 239.082 980.387 232.237C982.947 225.691 987.809 221.708 995.387 224.237C1002.1 226.477 1005 234.823 1003.39 241.737C1001.98 247.75 998.037 251.931 992.887 254.237C1007.06 265.003 1006.09 280.183 1003.39 287.737Z" fill="#7DA492" stroke="#2E2E2C" stroke-width="2" stroke-linejoin="round"/>
</g>
<g id="card-science">
<path id="Vector 103" d="M307.53 436.765L272.03 314.765C268.422 302.365 278.86 294.932 284.53 292.765C308.697 285.265 360.03 269.565 372.03 266.765C384.03 263.965 390.697 272.932 392.53 277.765C401.364 309.099 420.13 375.865 424.53 392.265C428.93 408.665 420.03 415.099 415.03 416.265C389.697 424.432 336.53 441.665 326.53 445.265C316.53 448.865 309.697 441.099 307.53 436.765Z" fill="#F7F4F2" stroke="#2E2E2C" stroke-width="2" stroke-linejoin="round"/>
<path id="Ellipse 12" d="M338.296 306.382C339.963 305.959 341.965 306.534 344.25 308.296C346.524 310.05 348.933 312.875 351.32 316.608C356.087 324.064 360.644 334.945 363.824 347.481C367.004 360.017 368.185 371.754 367.548 380.581C367.229 385 366.458 388.632 365.295 391.257C364.126 393.896 362.64 395.356 360.973 395.779C359.307 396.202 357.305 395.627 355.02 393.864C352.746 392.11 350.337 389.285 347.95 385.552C343.183 378.096 338.626 367.215 335.446 354.68C332.266 342.144 331.085 330.406 331.723 321.579C332.042 317.16 332.812 313.528 333.975 310.903C335.144 308.264 336.63 306.805 338.296 306.382Z" stroke="#2E2E2C" stroke-width="2"/>
<path id="Ellipse 13" d="M378.021 318.312C379.226 319.374 379.848 321.228 379.693 323.951C379.538 326.66 378.62 330.049 376.979 333.911C373.702 341.623 367.635 351.006 359.536 360.199C351.436 369.392 342.892 376.593 335.654 380.815C332.03 382.929 328.783 384.267 326.116 384.761C323.434 385.258 321.517 384.875 320.311 383.813C319.106 382.751 318.485 380.897 318.64 378.174C318.794 375.466 319.712 372.077 321.353 368.216C324.63 360.503 330.697 351.12 338.797 341.927C346.896 332.734 355.44 325.533 362.678 321.311C366.302 319.197 369.549 317.859 372.217 317.365C374.898 316.868 376.815 317.25 378.021 318.312Z" stroke="#2E2E2C" stroke-width="2"/>
<path id="Ellipse 14" d="M306.914 337.206C306.434 338.74 306.864 340.647 308.408 342.895C309.945 345.131 312.488 347.553 315.893 350.004C322.694 354.899 332.747 359.776 344.44 363.436C356.132 367.096 367.172 368.823 375.551 368.68C379.745 368.608 383.215 368.069 385.752 367.108C388.303 366.142 389.743 364.82 390.223 363.287C390.703 361.754 390.273 359.847 388.729 357.599C387.192 355.364 384.65 352.942 381.245 350.491C374.443 345.596 364.39 340.719 352.697 337.059C341.005 333.398 329.966 331.672 321.587 331.815C317.392 331.886 313.922 332.426 311.385 333.386C308.834 334.352 307.394 335.673 306.914 337.206Z" stroke="#2E2E2C" stroke-width="2"/>
<circle id="Ellipse 15" cx="339.531" cy="308.765" r="3" fill="#2E2E2C"/>
<circle id="Ellipse 16" cx="376.531" cy="321.765" r="3" fill="#2E2E2C"/>
<circle id="Ellipse 17" cx="387.531" cy="361.765" r="3" fill="#2E2E2C"/>
<circle id="Ellipse 18" cx="360.531" cy="392.765" r="3" fill="#2E2E2C"/>
<circle id="Ellipse 19" cx="322.531" cy="381.765" r="3" fill="#2E2E2C"/>
<circle id="Ellipse 20" cx="309.531" cy="337.765" r="3" fill="#2E2E2C"/>
<circle id="Ellipse 21" cx="349.531" cy="350.765" r="6" fill="#F17844" stroke="#2E2E2C" stroke-width="2"/>
</g>
<g id="card-globe">
<path id="Vector 104" d="M570.532 164.265L588.532 26.7653C590.313 13.1653 606.273 14.0987 614.031 16.2653C638.865 23.432 692.331 39.4653 707.531 46.2653C722.731 53.0653 724.531 65.432 723.531 70.7653C717.365 109.432 704.331 191.065 701.531 208.265C698.731 225.465 683.698 224.432 676.531 221.765C651.865 213.099 598.932 194.765 584.532 190.765C570.132 186.765 569.199 171.432 570.532 164.265Z" fill="#FBF8F6" stroke="#2E2E2C" stroke-width="2" stroke-linejoin="round"/>
<path id="Vector 106" d="M665.531 75.7651L670.531 70.2651C686.031 80.2651 697.431 115.065 677.031 138.265C660.764 156.765 636.865 155.265 629.531 149.265" stroke="#2E2E2C" stroke-width="2" stroke-linejoin="round"/>
<path id="Vector 105" d="M723.031 72.7651C725.031 59.1651 715.198 50.0985 710.031 47.2651C727.631 54.4651 729.698 67.2651 728.531 72.7651C722.531 111.432 709.731 192.965 706.531 209.765C703.413 226.135 686.432 225.161 677.701 222.48C691.667 226.76 699.062 217.179 701.031 211.765C707.531 171.098 721.031 86.3651 723.031 72.7651Z" fill="#FBF8F6" stroke="#2E2E2C" stroke-width="2" stroke-linejoin="round"/>
<path id="Ellipse 22" d="M644.031 68.7651C664.141 68.7651 680.531 85.9526 680.531 107.265C680.531 128.578 664.141 145.765 644.031 145.765C623.921 145.765 607.531 128.578 607.531 107.265C607.531 85.9526 623.921 68.7651 644.031 68.7651Z" fill="#7CA290" stroke="#292A28" stroke-width="2"/>
<path id="Vector 107" d="M652.031 70.2651C639.531 75.7651 615.433 93.3651 635.033 143.765" stroke="#FBF8F6" stroke-width="2" stroke-linejoin="round"/>
<path id="Vector 110" d="M610.531 92.2651L678.031 118.265" stroke="#FBF8F6" stroke-width="2" stroke-linejoin="round"/>
<path id="Vector 111" d="M629.531 72.2651C632.865 80.4318 646.331 94.7651 673.531 86.7651" stroke="#FBF8F6" stroke-width="2" stroke-linejoin="round"/>
<path id="Vector 112" d="M613.531 125.765C621.865 120.932 642.731 117.465 659.531 142.265" stroke="#FBF8F6" stroke-width="2" stroke-linejoin="round"/>
<path id="Vector 108" d="M635.031 144.265C644.783 140.932 671.032 114.765 654.859 70.7651" stroke="#FBF8F6" stroke-width="2" stroke-linejoin="round"/>
<path id="Ellipse 23" d="M644.031 68.7651C664.141 68.7651 680.531 85.9526 680.531 107.265C680.531 128.578 664.141 145.765 644.031 145.765C623.921 145.765 607.531 128.578 607.531 107.265C607.531 85.9526 623.921 68.7651 644.031 68.7651Z" stroke="#292A28" stroke-width="2"/>
<path id="Vector 113" d="M634.032 162.265V151.765L638.531 153.265V163.765L651.531 168.265C655.031 169.765 655.365 174.932 654.031 176.765L617.032 163.765C616.232 159.365 619.699 158.265 621.532 158.265L634.032 162.265Z" fill="#040504" stroke="#1C1C1B" stroke-width="2" stroke-linejoin="round"/>
</g>
<g id="card-biology">
<path id="Vector 114" d="M599.013 379.946L632.513 261.946C637.713 249.946 648.013 249.946 652.514 251.446C675.014 259.28 723.514 276.046 737.514 280.446C751.514 284.846 753.014 296.946 752.014 302.446C741.347 339.28 719.214 415.546 716.014 425.946C712.814 436.346 702.68 435.613 698.014 433.946C674.68 425.28 624.713 406.746 611.513 401.946C598.313 397.146 597.68 385.28 599.013 379.946Z" fill="#F7F5F3" stroke="#1C1C1B" stroke-width="2" stroke-linejoin="round"/>
<path id="Vector 115" d="M751.514 304.446C754.714 292.446 746.514 284.446 742.014 281.946C756.414 287.546 757.014 299.28 755.514 304.446C744.847 341.613 722.814 418.046 720.014 426.446C717.214 434.846 706.847 435.613 702.014 434.946C710.014 435.346 714.014 431.113 715.014 428.946C725.847 392.446 748.314 316.446 751.514 304.446Z" fill="#F7F5F3" stroke="#1C1C1B" stroke-width="2" stroke-linejoin="round"/>
<path id="Vector 116" d="M683.513 313.946C678.18 312.28 670.713 304.546 683.513 286.946C688.179 291.78 694.712 303.946 683.513 313.946Z" fill="#7CA290" stroke="#2E2E2C" stroke-width="2" stroke-linejoin="round"/>
<path id="Vector 117" d="M673.965 326.845C668.767 328.896 658.1 327.564 657.015 305.828C663.682 306.661 676.405 312.031 673.965 326.845Z" fill="#7CA290" stroke="#2E2E2C" stroke-width="2" stroke-linejoin="round"/>
<path id="Vector 120" d="M685.251 328.224C683.845 322.816 686.459 312.389 708.166 313.944C706.532 320.461 699.661 332.44 685.251 328.224Z" fill="#7CA290" stroke="#2E2E2C" stroke-width="2" stroke-linejoin="round"/>
<path id="Vector 121" d="M676.252 352.224C674.846 346.816 686.014 336.446 701.514 340.946C699.879 347.463 688.014 359.946 676.252 352.224Z" fill="#7CA290" stroke="#2E2E2C" stroke-width="2" stroke-linejoin="round"/>
<path id="Vector 122" d="M667.955 377.358C666.549 371.95 677.717 361.58 693.217 366.079C691.583 372.596 679.717 385.08 667.955 377.358Z" fill="#7CA290" stroke="#2E2E2C" stroke-width="2" stroke-linejoin="round"/>
<path id="Vector 118" d="M667.965 348.845C662.767 350.896 652.1 349.564 651.015 327.828C657.682 328.661 670.405 334.031 667.965 348.845Z" fill="#7CA290" stroke="#2E2E2C" stroke-width="2" stroke-linejoin="round"/>
<path id="Vector 119" d="M659.965 371.845C654.767 373.896 644.1 372.564 643.015 350.828C649.682 351.661 662.405 357.031 659.965 371.845Z" fill="#7CA290" stroke="#2E2E2C" stroke-width="2" stroke-linejoin="round"/>
<path id="Vector 123" d="M657.514 392.946C657.708 390.812 658.661 386.134 661.514 377.446C663.278 372.072 666.51 363.62 668.514 357.927C671.619 349.107 674.654 340.909 676.514 336.446C680.514 326.846 682.514 309.446 683.014 301.946M676.514 336.446C675.714 328.446 669.18 320.446 666.014 317.446M659.014 338.446C662.514 341.1 669.314 348.712 668.514 357.927M651.014 360.946C654.812 363.946 661.272 373.446 661.514 377.446" stroke="#2E2E2C" stroke-width="2" stroke-linecap="round" stroke-linejoin="round"/>
<path id="Vector 124" d="M696.514 321.446C693.014 323.28 684.214 328.646 677.014 335.446M689.014 346.946C684.014 348.446 673.014 352.346 669.014 355.946M681.014 371.446C675.847 372.78 664.414 377.046 660.014 383.446" stroke="#2E2E2C" stroke-width="2" stroke-linecap="round" stroke-linejoin="round"/>
</g>
<g id="card-chemistry">
<path id="Vector 125" d="M425.031 261.265L389.031 135.265C384.631 119.865 396.198 112.515 402.531 110.765C421.531 104.765 464.031 91.5653 482.031 86.7653C500.031 81.9653 507.198 92.432 508.531 98.2653C516.698 131.432 534.331 201.765 539.531 217.765C544.731 233.765 536.031 242.765 531.031 245.265C505.031 253.099 451.231 269.365 444.031 271.765C436.831 274.165 428.364 265.765 425.031 261.265Z" fill="#F8F5F3" stroke="#2E2E2C" stroke-width="2" stroke-linecap="round" stroke-linejoin="round"/>
<path id="Vector 127" d="M449.531 209.765L453.531 187.765C457.031 186.265 464.231 183.165 465.031 182.765C465.831 182.365 468.698 184.598 470.031 185.765L485.031 180.765C490.198 186.598 500.731 199.165 501.531 202.765C502.331 206.365 498.531 208.932 496.531 209.765C483.698 213.598 457.731 221.265 456.531 221.265C447.731 222.065 448.198 213.932 449.531 209.765Z" fill="#F07641"/>
<path id="Vector 126" d="M467.032 135.265L474.532 163.265C483.198 171.765 501.332 190.565 504.532 197.765C507.732 204.965 504.198 210.098 502.032 211.765C493.365 214.265 472.632 220.365 459.032 224.765C445.432 229.165 443.365 219.265 444.032 213.765L454.532 167.265L448.032 141.265C437.632 141.265 440.531 134.307 444.031 133.265C451.864 130.932 467.132 125.765 467.532 125.765C473.132 126.565 471.865 131.098 470.532 133.265L467.032 135.265ZM467.032 135.265L455.531 138.265" stroke="#2E2E2C" stroke-width="2" stroke-linecap="round" stroke-linejoin="round"/>
<circle id="Ellipse 24" cx="461.531" cy="154.765" r="3" fill="#F17742"/>
<circle id="Ellipse 26" cx="480.531" cy="202.765" r="3" fill="#F8F5F3"/>
<circle id="Ellipse 27" cx="462.531" cy="206.765" r="3" fill="#F8F5F3"/>
<circle id="Ellipse 28" cx="470.531" cy="192.765" r="2" fill="#F8F5F3"/>
<circle id="Ellipse 25" cx="469.531" cy="175.765" r="3" fill="#F17742"/>
</g>
<g id="card-art">
<path id="Vector 128" d="M782.979 437.168L818.979 323.668C822.98 314.468 832.646 313.501 836.979 314.168C861.312 323.001 912.779 341.668 923.979 345.668C935.179 349.668 936.312 361.334 935.479 366.668C925.645 399.668 904.979 468.768 900.979 481.168C896.979 493.568 886.979 495.334 882.479 494.668C856.312 484.834 801.379 464.068 790.979 459.668C780.579 455.268 781.312 442.834 782.979 437.168Z" fill="#F7F4F2" stroke="#2E2E2C" stroke-width="2"/>
<path id="Vector 129" d="M934.979 367.667C938.179 355.667 928.979 348.001 923.979 345.667C939.579 350.867 940.812 362.501 939.479 367.667C929.312 402.167 907.979 473.867 903.979 484.667C899.979 495.467 887.645 495.834 881.979 494.667C893.579 496.267 899.145 487.001 900.479 482.167C910.645 449.001 931.779 379.667 934.979 367.667Z" fill="#F7F4F2" stroke="#2E2E2C" stroke-width="2"/>
<path id="Vector 130" d="M860.979 399.667C857.478 400.834 854.979 404.667 855.478 408.668C855.311 412.001 856.278 418.267 861.478 416.667C867.978 414.667 872.478 401.667 875.478 403.667C878.478 405.667 878.478 410.167 876.978 414.667C875.478 419.167 869.977 430.167 857.978 433.667C847.478 437.167 835.478 429.167 826.478 418.667C816.37 406.875 814.978 369.668 837.978 361.668C860.978 353.668 873.519 370.946 876.978 380.168C879.979 388.167 876.978 396.334 871.478 398.168C869.979 398.667 866.218 397.921 860.979 399.667Z" stroke="#2E2E2C" stroke-width="2"/>
<ellipse id="Ellipse 29" cx="865.479" cy="383.167" rx="5" ry="5.5" fill="#709786"/>
<ellipse id="Ellipse 30" cx="852.479" cy="372.167" rx="5" ry="5.5" fill="#709786"/>
<ellipse id="Ellipse 31" cx="837.479" cy="378.167" rx="5" ry="5.5" fill="#709786"/>
<ellipse id="Ellipse 32" cx="830.078" cy="393.706" rx="5" ry="5.5" transform="rotate(6.60899 830.078 393.706)" fill="#709786"/>
<ellipse id="Ellipse 33" cx="836.992" cy="408.194" rx="3.74764" ry="4.1224" transform="rotate(6.60899 836.992 408.194)" fill="#709786"/>
<path id="Vector 131" d="M890.979 392.667L840.479 417.167L838.979 418.167L842.479 424.167C845.812 422.667 856.279 417.867 871.479 410.667C890.479 401.667 905.979 392.667 903.479 389.667C901.479 387.267 894.312 390.667 890.979 392.667Z" fill="#709786" stroke="#2E2E2C" stroke-width="2"/>
<path id="Vector 132" d="M815.979 432.168C824.779 419.368 834.312 417.168 837.979 417.668C840.979 417.557 842.979 420.167 842.479 424.167C841.979 428.167 835.479 431.167 830.479 433.667C826.479 435.667 819.145 433.501 815.979 432.168Z" fill="#709786" stroke="#2E2E2C" stroke-width="2"/>
<path id="Vector 133" d="M836.979 420.168L835.479 418.668C836.979 418.168 840.271 418.753 840.979 420.168C841.979 422.167 841.645 425.334 840.479 426.168L839.979 425.668L838.979 424.668V423.168L836.979 421.668V420.168Z" fill="#EF743F"/>
</g>
<g id="report">
<path id="shadow" d="M1063.05 635.371L894.029 791.519C889.981 794.551 891.501 798.831 894.03 800.11C935.019 820.829 1019.43 863.479 1029.14 868.33C1038.86 873.181 1043.99 869.678 1045.34 867.32C1099.48 815.775 1208.99 711.474 1213.85 706.623C1218.71 701.772 1215.87 698.875 1213.85 698.033C1171.17 677.988 1084 636.988 1076.71 633.35C1069.42 629.711 1064.57 633.181 1063.05 635.371Z" fill="#F0ECE7"/>
<path id="Vector 134" d="M1062.53 619.765L895.53 774.265C891.531 777.265 893.032 781.5 895.531 782.765C936.031 803.265 1019.43 845.465 1029.03 850.265C1038.63 855.065 1043.7 851.598 1045.03 849.265C1098.53 798.265 1206.73 695.065 1211.53 690.265C1216.33 685.465 1213.53 682.598 1211.53 681.765C1169.36 661.932 1083.23 621.365 1076.03 617.765C1068.83 614.165 1064.03 617.598 1062.53 619.765Z" fill="#F8F5F3" stroke="#2E2E2C" stroke-width="2"/>
<path id="Vector 135" d="M1214.03 685.265C1215.2 686.932 1215.13 691.265 1211.53 694.265C1206.73 698.265 1098.2 802.598 1044.53 853.765C1042.7 855.598 1036.93 858.165 1028.53 853.765C1020.13 849.365 936.699 807.265 896.032 786.765C893.553 785.371 890.929 783.544 892.983 778.07C893.098 777.521 893.316 777.067 893.531 776.765C893.321 777.222 893.139 777.656 892.983 778.07C892.656 779.641 893.178 781.987 897.032 783.765C902.232 786.165 989.199 830.098 1032.03 851.765C1034.7 852.598 1041.13 853.165 1045.53 848.765C1049.93 844.365 1158.03 741.265 1211.53 690.265C1212.37 689.432 1214.03 687.265 1214.03 685.265Z" fill="#F8F5F3" stroke="#2E2E2C" stroke-width="2"/>
<path id="Vector 138" d="M1049.03 786.765L1030.53 803.765L1060.53 806.265C1062.13 796.265 1053.53 789.098 1049.03 786.765Z" fill="#F07540" stroke="#2F2F2E" stroke-width="2" stroke-linejoin="round"/>
<path id="Vector 139" d="M1019.53 784.765L1030.03 803.265L1009.53 789.765C1012.73 786.565 1017.53 785.098 1019.53 784.765Z" fill="#D9D9D9" stroke="#2F2F2E" stroke-width="2" stroke-linejoin="round"/>
<g id="checkbox">
<path id="Rectangle 13" d="M1061.04 644.222C1061.34 643.946 1061.77 643.878 1062.14 644.049L1081.7 653.147C1082.34 653.444 1082.48 654.291 1081.97 654.777L1066.19 669.858C1065.89 670.147 1065.44 670.217 1065.06 670.033L1045.5 660.48C1044.87 660.172 1044.74 659.326 1045.26 658.848L1061.04 644.222Z" stroke="#2F2F2E" stroke-width="2"/>
<path id="Vector 136" d="M1058.53 661.765L1057.53 651.765L1061.03 651.265L1062.03 657.765C1066.83 656.565 1079.03 652.765 1083.53 653.765L1079.03 655.265L1071.03 657.765L1058.53 661.765Z" fill="#F17641"/>
</g>
<g id="checkbox_2">
<path id="Rectangle 13_2" d="M1027.38 674.776C1027.68 674.5 1028.11 674.431 1028.48 674.602L1048.05 683.701C1048.69 683.998 1048.83 684.844 1048.32 685.331L1032.53 700.412C1032.23 700.701 1031.78 700.771 1031.4 700.587L1011.84 691.034C1011.21 690.725 1011.09 689.879 1011.6 689.402L1027.38 674.776Z" stroke="#2F2F2E" stroke-width="2"/>
<path id="Vector 136_2" d="M1024.88 692.319L1023.88 682.319L1027.38 681.819L1028.38 688.319C1033.18 687.119 1045.38 683.319 1049.88 684.319L1045.38 685.819L1037.38 688.319L1024.88 692.319Z" fill="#F17641"/>
</g>
<g id="checkbox_3">
<path id="Rectangle 13_3" d="M995.384 707.776C995.682 707.5 996.117 707.431 996.485 707.602L1016.05 716.701C1016.69 716.998 1016.83 717.844 1016.32 718.331L1000.54 733.412C1000.23 733.701 999.782 733.771 999.406 733.587L979.844 724.034C979.213 723.725 979.088 722.879 979.603 722.402L995.384 707.776Z" stroke="#2F2F2E" stroke-width="2"/>
<path id="Vector 136_3" d="M992.877 725.319L991.877 715.319L995.377 714.819L996.377 721.319C1001.18 720.119 1013.38 716.319 1017.88 717.319L1013.38 718.819L1005.38 721.319L992.877 725.319Z" fill="#F17641"/>
</g>
<g id="checkbox_4">
<path id="Rectangle 13_4" d="M962.382 736.776C962.68 736.5 963.115 736.431 963.483 736.602L983.047 745.701C983.685 745.998 983.825 746.844 983.316 747.331L967.534 762.412C967.231 762.701 966.78 762.771 966.404 762.587L946.842 753.034C946.211 752.725 946.086 751.879 946.601 751.402L962.382 736.776Z" stroke="#2F2F2E" stroke-width="2"/>
<path id="Vector 136_4" d="M959.875 754.319L958.875 744.319L962.375 743.819L963.375 750.319C968.175 749.119 980.375 745.319 984.875 746.319L980.375 747.819L972.375 750.319L959.875 754.319Z" fill="#F17641"/>
</g>
<path id="Ellipse 34" d="M1031.03 782.765C1039.27 782.765 1046.69 785.121 1052.02 788.879C1057.36 792.64 1060.53 797.741 1060.53 803.265C1060.53 808.789 1057.36 813.891 1052.02 817.651C1046.69 821.409 1039.27 823.765 1031.03 823.765C1022.79 823.765 1015.37 821.409 1010.04 817.651C1004.71 813.891 1001.53 808.789 1001.53 803.265C1001.53 797.741 1004.71 792.64 1010.04 788.879C1015.37 785.121 1022.79 782.765 1031.03 782.765Z" stroke="#2F2F2E" stroke-width="2"/>
<path id="Vector 137" d="M1031.03 803.765L1038.03 822.765C1051.03 822.265 1058.53 811.765 1060.03 806.265L1031.03 803.765Z" fill="#97B8AA" stroke="#2F2F2E" stroke-width="2" stroke-linejoin="round"/>
<path id="Vector 140" d="M1098.03 663.765L1167.03 698.765" stroke="#BDB8B3" stroke-width="2" stroke-linecap="round" stroke-linejoin="round"/>
<path id="Vector 141" d="M1080.53 684.765L1149.53 719.765" stroke="#BDB8B3" stroke-width="2" stroke-linecap="round" stroke-linejoin="round"/>
<path id="Vector 142" d="M1066.53 699.765L1135.53 734.765" stroke="#BDB8B3" stroke-width="2" stroke-linecap="round" stroke-linejoin="round"/>
<path id="Vector 143" d="M1046.53 714.765L1115.53 749.765" stroke="#BDB8B3" stroke-width="2" stroke-linecap="round" stroke-linejoin="round"/>
<path id="Vector 144" d="M1031.53 727.765L1100.53 762.765" stroke="#BDB8B3" stroke-width="2" stroke-linecap="round" stroke-linejoin="round"/>
<path id="Vector 145" d="M1017.53 743.765L1086.53 778.765" stroke="#BDB8B3" stroke-width="2" stroke-linecap="round" stroke-linejoin="round"/>
<path id="Vector 146" d="M931.531 768.765L974.531 792.765" stroke="#BDB8B3" stroke-width="2" stroke-linecap="round" stroke-linejoin="round"/>
<path id="Vector 147" d="M980.531 770.765L997.031 779.265" stroke="#BDB8B3" stroke-width="2" stroke-linecap="round" stroke-linejoin="round"/>
<path id="Vector 148" d="M993.531 758.765L1010.03 767.265" stroke="#BDB8B3" stroke-width="2" stroke-linecap="round" stroke-linejoin="round"/>
</g>
<g id="chip">
<path id="shadow_2" d="M572.979 916.621L501.605 874.458C494.033 868.265 501.957 861.863 505.306 860.221C525.396 848.174 567.375 823.205 574.565 819.7C581.755 816.196 588.487 818.24 590.954 819.7C611.045 831.382 656.996 854.832 665.032 859.213C673.068 863.593 671.02 870.257 667.676 872.355C648.466 884.401 603.855 910.926 594.127 916.621C584.399 922.316 575.975 918.994 572.979 916.621Z" fill="#EDE8E2"/>
<g id="line">
<path id="Vector 159" d="M518.531 874.765L485.531 895.265" stroke="#383D3A" stroke-width="1.5"/>
<ellipse id="Ellipse 35" cx="483.031" cy="896.765" rx="3.5" ry="2" stroke="#383D3A" stroke-width="1.5"/>
</g>
<g id="line_2">
<path id="Vector 159_2" d="M504.531 842.765L466.531 822.765" stroke="#383D3A" stroke-width="1.5"/>
<ellipse id="Ellipse 35_2" cx="3.5" cy="2" rx="3.5" ry="2" transform="matrix(1 0 0 -1 460.531 823.765)" stroke="#383D3A" stroke-width="1.5"/>
</g>
<g id="line_3">
<path id="Vector 159_3" d="M533.531 824.765L513.531 813.765" stroke="#383D3A" stroke-width="1.5"/>
<ellipse id="Ellipse 35_3" cx="3.5" cy="2" rx="3.5" ry="2" transform="matrix(1 0 0 -1 507.531 814.765)" stroke="#383D3A" stroke-width="1.5"/>
</g>
<g id="line_4">
<path id="Vector 159_4" d="M538.531 886.765L507.031 906.265" stroke="#383D3A" stroke-width="1.5"/>
<ellipse id="Ellipse 35_4" cx="505.031" cy="907.765" rx="3.5" ry="2" stroke="#383D3A" stroke-width="1.5"/>
</g>
<g id="line_5">
<path id="Vector 159_5" d="M560.531 896.765L526.031 918.765" stroke="#383D3A" stroke-width="1.5"/>
<ellipse id="Ellipse 35_5" cx="524.031" cy="920.765" rx="3.5" ry="2" stroke="#383D3A" stroke-width="1.5"/>
</g>
<g id="line_6">
<path id="Vector 159_6" d="M618.031 893.265L669.031 920.765" stroke="#383D3A" stroke-width="1.5"/>
<ellipse id="Ellipse 35_6" cx="3.5" cy="2" rx="3.5" ry="2" transform="matrix(-1 0 0 1 674.531 920.765)" stroke="#383D3A" stroke-width="1.5"/>
</g>
<g id="line_7">
<path id="Vector 160" d="M627.531 880.765L672.531 905.265" stroke="#383D3A" stroke-width="1.5"/>
<ellipse id="Ellipse 36" cx="3" cy="2" rx="3" ry="2" transform="matrix(-1 0 0 1 677.531 904.765)" stroke="#383D3A" stroke-width="1.5"/>
</g>
<g id="line_8">
<path id="Vector 159_7" d="M648.531 872.765L711.031 905.765" stroke="#383D3A" stroke-width="1.5"/>
<ellipse id="Ellipse 35_7" cx="3.5" cy="2" rx="3.5" ry="2" transform="matrix(-1 0 0 1 716.531 905.765)" stroke="#383D3A" stroke-width="1.5"/>
</g>
<path id="Vector 150" d="M504.032 862.265V846.265C504.432 849.865 506.198 851.765 507.031 852.265C525.865 862.765 565.631 884.965 574.031 889.765C582.431 894.565 590.531 891.765 593.531 889.765C614.031 877.432 655.631 852.465 658.031 851.265C660.431 850.065 661.698 846.765 662.031 845.265V862.765C662.031 865.165 660.865 866.265 660.031 866.765C640.198 878.932 598.831 904.165 592.031 907.765C585.231 911.365 578.198 909.265 575.531 907.765C554.531 895.798 511.632 871.344 508.032 869.265C504.432 867.187 503.865 863.732 504.032 862.265Z" fill="#7A9F8E" stroke="#2E2E2C" stroke-width="2" stroke-linejoin="round"/>
<path id="Vector 160_2" d="M581.531 909.265V893.265C582.731 893.265 586.031 892.598 587.531 892.265V909.265C584.731 910.465 582.365 909.765 581.531 909.265Z" fill="#2C2C29"/>
<path id="Vector 151" d="M523.031 876.9C523.198 875.4 522.916 871.842 520.031 870.4C517.031 868.9 514.531 870.4 513.531 871.4L523.031 876.9Z" fill="#2E2E2C"/>
<path id="Vector 152" d="M537.031 884.9C537.198 883.4 536.916 879.842 534.031 878.4C531.031 876.9 528.531 878.4 527.531 879.4L537.031 884.9Z" fill="#2E2E2C"/>
<path id="Vector 153" d="M550.031 892.9C550.198 891.4 549.916 887.842 547.031 886.4C544.031 884.9 541.531 886.4 540.531 887.4L550.031 892.9Z" fill="#2E2E2C"/>
<path id="Vector 154" d="M563.031 899.9C563.198 898.4 562.916 894.842 560.031 893.4C557.031 891.9 554.531 893.4 553.531 894.4L563.031 899.9Z" fill="#2E2E2C"/>
<path id="Vector 155" d="M611.571 895.765C611.396 894.083 611.692 890.094 614.716 888.477C617.862 886.795 620.483 888.477 621.531 889.598L611.571 895.765Z" fill="#2E2E2C"/>
<path id="Vector 156" d="M627.571 885.765C627.396 884.083 627.692 880.094 630.716 878.477C633.862 876.795 636.483 878.477 637.531 879.598L627.571 885.765Z" fill="#2E2E2C"/>
<path id="Vector 157" d="M642.571 876.765C642.396 875.083 642.692 871.094 645.716 869.477C648.862 867.795 651.483 869.477 652.531 870.598L642.571 876.765Z" fill="#2E2E2C"/>
<path id="Vector 149" d="M573.531 889.765L506.031 851.265C501.231 844.465 506.364 839.765 509.531 838.265C528.531 827.265 568.231 804.465 575.031 801.265C581.831 798.065 588.197 799.932 590.531 801.265C609.531 811.932 649.431 834.265 657.031 838.265C664.631 842.265 661.864 847.932 659.531 850.265C641.364 861.265 602.731 884.565 593.531 889.765C584.331 894.965 576.364 891.932 573.531 889.765Z" fill="#F8F5F4" stroke="#2E2E2C" stroke-width="2"/>
<path id="Vector 158" d="M583.531 825.765C582.865 831.765 577.331 843.765 560.531 843.765C567.198 843.765 581.131 847.765 583.531 863.765C583.031 857.765 586.931 845.365 606.531 843.765C599.365 844.432 584.731 841.765 583.531 825.765Z" stroke="#EE713B" stroke-width="2"/>
</g>
<g id="plant">
<g id="pot">
<ellipse id="shadow_3" cx="91.5812" cy="655.964" rx="63.5812" ry="29.9638" fill="#EFE9E3"/>
<path id="Vector 161" d="M43.0312 645.765V576.265C43.0312 586.598 57.5312 605.265 90.5312 605.265C127.766 605.265 138.698 585.265 139.531 576.265V647.265C139.031 650.765 137.031 655.765 123.031 664.765C101.909 678.343 71.0312 670.765 58.0312 664.765C47.6313 659.965 43.3646 650.265 43.0312 645.765Z" fill="#EEEAE4" stroke="#2E2E2C" stroke-width="2" stroke-linejoin="round"/>
<ellipse id="Ellipse 37" cx="91.0312" cy="576.265" rx="48.5" ry="28.5" fill="#F8F7F7" stroke="#2E2E2C" stroke-width="2"/>
<path id="Ellipse 38" d="M91.5312 553.265C102.507 553.265 112.42 555.769 119.57 559.792C126.737 563.823 131.031 569.313 131.031 575.265C131.031 581.217 126.737 586.708 119.57 590.739C112.42 594.761 102.507 597.265 91.5312 597.265C80.5552 597.265 70.6429 594.761 63.4922 590.739C56.3259 586.708 52.0312 581.217 52.0312 575.265C52.0312 569.313 56.3259 563.823 63.4922 559.792C70.6429 555.769 80.5552 553.265 91.5312 553.265Z" fill="#EEE8E2" stroke="#181817"/>
</g>
<path id="soil" d="M90.5312 574.265C104.988 574.265 118.895 581.289 124.951 585.381C118.302 591.337 104.689 596.737 90.5645 596.266C81.8664 595.976 74.6026 594.614 69.0469 592.546C63.9217 590.639 60.3387 588.164 58.3672 585.46C63.4348 581.42 75.944 574.265 90.5312 574.265Z" fill="#3B362A" stroke="#2E2E2C" stroke-width="2"/>
<g id="leaf-top">
<path id="Vector 163" d="M23.0306 494.265C64.6306 489.065 77.364 521.432 78.5306 538.265C78.5301 539.865 77.8638 540.598 77.5306 540.765C32.3306 539.965 22.364 509.432 23.0306 494.265Z" fill="#7CA290" stroke="#2E2E2C" stroke-width="2"/>
<path id="Vector 168" d="M44.0312 509.265C53.0312 514.598 72.3313 528.265 77.5312 540.265" stroke="#2E2E2C" stroke-width="2" stroke-linecap="round"/>
</g>
<path id="stem-main" d="M90.5311 586.765C90.5311 544.765 86.6977 506.932 82.5311 494.265C81.8744 492.265 84.2297 492.265 84.5311 493.265C93.3329 522.465 93.5312 567.765 93.5312 586.765C92.0312 589.265 90.5311 587.265 90.5311 586.765Z" fill="#2E2E2C"/>
<path id="stem-left" d="M90.0313 588.265C92.0313 573.065 82.5313 550.598 77.5313 541.265C76.4603 539.265 78.0134 538.377 79.0313 539.765C90.032 554.765 93.5313 580.098 94.0313 588.265C92.8313 589.465 90.8646 588.765 90.0313 588.265Z" fill="#2E2E2C"/>
<path id="stem-right-top" d="M101.531 515.265C94.5312 525.765 90.5312 544.265 90.5312 545.265L92.0312 551.265C93.5312 531.265 102.531 518.765 103.031 516.265C103.531 513.765 101.531 514.265 101.531 515.265Z" fill="#2A2A28"/>
<path id="stem-right-bottom" d="M102.031 557.265C97.2312 562.465 93.0312 571.432 91.5312 575.265L92.5312 581.265C93.3312 572.865 99.8646 562.765 103.031 558.765L102.031 557.265Z" fill="#212120"/>
<g id="leaf-right-top">
<path id="Vector 165" d="M157.529 457.265C157.529 499.266 124.029 515.399 111.029 515.399C109.481 515.802 102.523 515.679 102.278 515.399C91.6563 471.458 140.529 457.265 157.529 457.265Z" fill="#7CA290" stroke="#2E2E2C" stroke-width="2"/>
<path id="Vector 169" d="M102.529 515.765C108.863 505.265 123.029 485.265 137.029 476.265" stroke="#2E2E2C" stroke-width="2" stroke-linecap="round"/>
</g>
<g id="leaf-right-bottom">
<path id="Vector 166" d="M147.032 525.765C147.032 550.265 117.715 559.265 109.032 559.265C107.656 559.265 102.593 559.007 102.532 558.265C100.031 527.765 134.532 522.765 147.032 525.765Z" fill="#7CA290" stroke="#2E2E2C" stroke-width="2"/>
<path id="Vector 170" d="M102.531 558.265C105.365 553.765 114.431 543.165 128.031 536.765" stroke="#2E2E2C" stroke-width="2" stroke-linecap="round"/>
</g>
<g id="leaf-top_2">
<path id="leaf" d="M52.4359 405.621C94.7345 416.051 97.0292 471.765 84.9183 491.392C83.9931 493.496 82.9396 494.184 82.5286 494.265C40.2978 474.45 37.0293 433.765 52.4359 405.621Z" fill="#7CA290" stroke="#2E2E2C" stroke-width="2"/>
<path id="Vector 167" d="M65.5293 438.765C72.5293 452.265 81.5293 481.665 83.5293 493.265" stroke="#2E2E2C" stroke-width="2" stroke-linecap="round"/>
</g>
</g>
<g id="pen">
<path id="shadow_4" d="M141.031 722.765L156.531 725.765H164.031C234.531 764.432 376.031 842.165 378.031 843.765C380.031 845.365 378.531 847.765 377.531 848.765C377.198 849.265 375.831 850.765 373.031 852.765C370.231 854.765 364.865 852.598 362.531 851.265C360.531 850.098 355.731 847.365 352.531 845.765C348.531 843.765 348.031 844.765 345.531 846.765C343.531 848.365 337.698 846.098 335.031 844.765L156.531 747.765L152.031 737.265C149.864 735.598 144.631 731.365 141.031 727.765C137.431 724.165 139.531 722.932 141.031 722.765Z" fill="#F0EBE6"/>
<path id="Vector 171" d="M142.531 706.265L164.031 733.765L177.031 711.765L142.531 706.265Z" fill="#F7F5F3" stroke="#191B19" stroke-width="2" stroke-linejoin="round"/>
<path id="Vector 172" d="M153.531 708.265C150.731 709.865 149.698 713.432 149.531 715.265L164.031 733.765L177.031 711.765L153.531 708.265Z" fill="#2F2E26" stroke="#191B19" stroke-width="2" stroke-linejoin="round"/>
<path id="Vector 173" d="M169.032 717.765C164.232 722.565 163.033 733.265 165.532 736.265L343.033 834.265H346.033C344.533 833.765 342.033 829.265 344.533 818.765C346.533 810.365 356.366 807.265 361.033 806.765L183.033 711.265C181.033 710.765 173.832 712.965 169.032 717.765Z" fill="#F8F6F4" stroke="#2E2E2C" stroke-width="2" stroke-linejoin="round"/>
<path id="Vector 179" d="M169.031 725.765C167.594 725.19 166.864 723.432 167.031 722.765C164.631 726.365 165.364 731.932 166.031 734.265L342.531 831.265C340.931 828.465 341.531 822.098 342.031 819.265C285.198 788.432 171.031 726.565 169.031 725.765Z" fill="#F0EBE5"/>
<ellipse id="Ellipse 39" cx="353.222" cy="821.217" rx="9.27191" ry="16.0319" transform="rotate(25.1308 353.222 821.217)" fill="#232522" stroke="#1A1A19" stroke-width="2"/>
<path id="Vector 174" d="M264.531 790.765C263.031 783.932 264.831 768.665 282.031 764.265" stroke="#2E2E2C" stroke-width="2" stroke-linejoin="round"/>
<path id="Vector 175" d="M347.531 799.765C331.931 805.365 330.697 820.932 332.031 827.765L346.031 835.765C339.031 815.265 352.031 806.098 359.531 805.765L347.531 799.765Z" fill="#789F8E" stroke="#2E2E2C" stroke-width="2" stroke-linejoin="round"/>
<path id="Vector 176" d="M294.031 763.265L288.531 767.765L296.031 771.765L298.531 769.265C313.198 777.265 342.561 793.451 343.031 793.765C344.531 794.765 343.198 795.765 343.031 796.765L350.531 801.265C350.865 801.432 351.531 800.865 351.531 797.265C351.531 793.665 351.031 793.765 350.531 793.265L298.531 763.265H294.031Z" fill="#7CA290" stroke="#2E2E2C" stroke-width="2" stroke-linejoin="round"/>
<path id="Vector 177" d="M290.031 767.765L293.531 764.765L298.531 768.265L296.031 770.765L290.031 767.765Z" fill="#242623"/>
<path id="Vector 178" d="M369.532 839.265C364.332 828.465 371.698 824.765 376.032 824.265L360.032 815.265C350.832 817.665 350.865 825.932 352.032 829.765L369.532 839.265Z" fill="#F5F1ED" stroke="#191917" stroke-width="2" stroke-linejoin="round"/>
<ellipse id="Ellipse 40" cx="373.197" cy="831.759" rx="5.5" ry="8.21843" transform="rotate(20.3619 373.197 831.759)" fill="#F8F5F3" stroke="#191917" stroke-width="2"/>
</g>
<g id="calendar">
<path id="shadow_5" d="M1071.53 534.265L1086.03 526.765L1177.53 488.765L1340.53 557.265C1341.53 557.598 1345.43 559.165 1353.03 562.765C1360.63 566.365 1357.53 570.932 1355.03 572.765C1333.53 588.432 1288.13 621.165 1278.53 626.765C1268.93 632.365 1260.53 630.765 1257.53 629.265C1200.7 603.598 1084.73 551.265 1075.53 547.265C1066.33 543.265 1065.53 537.765 1071.53 534.265Z" fill="#EFEAE4"/>
<path id="Vector 180" d="M1085.18 533.996L1122.79 341.515C1122.91 340.879 1123.6 340.527 1124.19 340.799L1297.82 420.939C1298.24 421.131 1298.47 421.58 1298.39 422.03L1262.27 615.501C1262.15 616.142 1261.46 616.499 1260.86 616.224L1085.74 535.095C1085.32 534.901 1085.09 534.447 1085.18 533.996Z" fill="#F7F5F3" stroke="#2E2E2C" stroke-width="2"/>
<path id="Vector 197" d="M1204.53 524.265L1209.53 496.765L1232.03 506.765L1227.03 534.265L1204.53 524.265Z" fill="#F07540" stroke="#2E2E2C" stroke-width="2" stroke-linejoin="round"/>
<g id="Vector 181">
<path d="M1269.53 612.265L1262.53 615.765L1298.03 422.265L1303.03 417.765L1269.53 612.265Z" fill="#F7F5F3"/>
<path d="M1262.53 615.765L1261.55 615.585L1261.19 617.556L1262.98 616.66L1262.53 615.765ZM1269.53 612.265L1269.98 613.16L1270.43 612.933L1270.52 612.435L1269.53 612.265ZM1303.03 417.765L1304.02 417.935C1304.09 417.515 1303.89 417.095 1303.51 416.89C1303.14 416.684 1302.68 416.737 1302.36 417.022L1303.03 417.765ZM1298.03 422.265L1297.36 421.522L1297.11 421.75L1297.05 422.085L1298.03 422.265ZM1262.53 615.765L1262.98 616.66L1269.98 613.16L1269.53 612.265L1269.08 611.371L1262.08 614.871L1262.53 615.765ZM1269.53 612.265L1270.52 612.435L1304.02 417.935L1303.03 417.765L1302.05 417.595L1268.55 612.095L1269.53 612.265ZM1303.03 417.765L1302.36 417.022L1297.36 421.522L1298.03 422.265L1298.7 423.008L1303.7 418.508L1303.03 417.765ZM1298.03 422.265L1297.05 422.085L1261.55 615.585L1262.53 615.765L1263.51 615.946L1299.01 422.446L1298.03 422.265Z" fill="#2E2E2C"/>
</g>
<path id="Vector 182" d="M1338.03 564.765L1302.53 418.265L1306.03 414.765L1341.53 562.265L1338.03 564.765Z" fill="#F7F5F3" stroke="#2E2E2C" stroke-width="2" stroke-linejoin="round"/>
<path id="Vector 183" d="M1284.53 604.765L1269.53 612.265L1283.03 536.765L1338.53 564.765L1323.53 574.265H1304.03L1284.53 604.765Z" fill="#729887" stroke="#2E2E2C" stroke-width="2" stroke-linejoin="round"/>
<path id="Vector 184" d="M1283.03 536.265L1303.03 420.265L1338.03 564.265L1283.03 536.265Z" fill="#729887" stroke="#2E2E2C" stroke-width="2" stroke-linejoin="round"/>
<path id="Vector 185" d="M1123.03 340.765L1298.53 421.265L1306.03 414.765L1132.03 335.265L1123.03 340.765Z" fill="#F7F6F3" stroke="#2E2E2C" stroke-width="2" stroke-linejoin="round"/>
<path id="Vector 186" d="M1128.03 338.265L1302.53 417.765" stroke="#2E2E2C" stroke-width="2" stroke-linejoin="round"/>
<g id="ring">
<path id="Ellipse 41" d="M1148.03 362.265C1150.75 362.265 1153.03 364.686 1153.03 367.765C1153.03 370.845 1150.75 373.265 1148.03 373.265C1145.31 373.265 1143.03 370.845 1143.03 367.765C1143.03 364.686 1145.31 362.265 1148.03 362.265Z" fill="#242624" stroke="#1A1A19"/>
<path id="Vector 187" d="M1149.53 364.265C1149.25 363.983 1146.72 363.765 1146.03 359.265C1144.03 346.265 1149.53 337.265 1156.53 336.765C1162.36 336.349 1162.7 345.46 1162.03 348.765L1165.53 350.265C1168.03 341.265 1163.54 332.531 1156.53 332.765C1141.53 333.265 1140.53 353.765 1142.03 360.265C1143.24 365.512 1147.03 367.765 1148.53 367.765C1150.03 367.765 1150.03 364.765 1149.53 364.265Z" fill="#F7F5F3" stroke="#2E2E2C" stroke-width="2" stroke-linejoin="round"/>
</g>
<g id="ring_2">
<path id="Ellipse 41_2" d="M1182.04 377.27C1184.76 377.27 1187.04 379.69 1187.04 382.77C1187.04 385.849 1184.76 388.27 1182.04 388.27C1179.32 388.27 1177.04 385.849 1177.04 382.77C1177.04 379.69 1179.32 377.27 1182.04 377.27Z" fill="#242624" stroke="#1A1A19"/>
<path id="Vector 187_2" d="M1183.54 379.27C1183.25 378.987 1180.73 378.77 1180.04 374.27C1178.04 361.27 1183.54 352.27 1190.54 351.77C1196.37 351.353 1196.71 360.465 1196.04 363.77L1199.54 365.27C1202.04 356.27 1197.55 347.536 1190.54 347.77C1175.54 348.27 1174.54 368.77 1176.04 375.27C1177.25 380.517 1181.04 382.77 1182.54 382.77C1184.04 382.77 1184.04 379.769 1183.54 379.27Z" fill="#F7F5F3" stroke="#2E2E2C" stroke-width="2" stroke-linejoin="round"/>
</g>
<g id="ring_3">
<path id="Ellipse 41_3" d="M1214.04 391.27C1216.76 391.27 1219.04 393.69 1219.04 396.77C1219.04 399.849 1216.76 402.27 1214.04 402.27C1211.32 402.27 1209.04 399.849 1209.04 396.77C1209.04 393.69 1211.32 391.27 1214.04 391.27Z" fill="#242624" stroke="#1A1A19"/>
<path id="Vector 187_3" d="M1215.54 393.27C1215.25 392.987 1212.73 392.77 1212.04 388.27C1210.04 375.27 1215.54 366.27 1222.54 365.77C1228.37 365.353 1228.71 374.465 1228.04 377.77L1231.54 379.27C1234.04 370.27 1229.55 361.536 1222.54 361.77C1207.54 362.27 1206.54 382.77 1208.04 389.27C1209.25 394.517 1213.04 396.77 1214.54 396.77C1216.04 396.77 1216.04 393.769 1215.54 393.27Z" fill="#F7F5F3" stroke="#2E2E2C" stroke-width="2" stroke-linejoin="round"/>
</g>
<g id="ring_4">
<path id="Ellipse 41_4" d="M1241.04 404.27C1243.76 404.27 1246.04 406.69 1246.04 409.77C1246.04 412.849 1243.76 415.27 1241.04 415.27C1238.32 415.27 1236.04 412.849 1236.04 409.77C1236.04 406.69 1238.32 404.27 1241.04 404.27Z" fill="#242624" stroke="#1A1A19"/>
<path id="Vector 187_4" d="M1242.54 406.27C1242.25 405.987 1239.73 405.77 1239.04 401.27C1237.04 388.27 1242.54 379.27 1249.54 378.77C1255.37 378.353 1255.71 387.465 1255.04 390.77L1258.54 392.27C1261.04 383.27 1256.55 374.536 1249.54 374.77C1234.54 375.27 1233.54 395.77 1235.04 402.27C1236.25 407.517 1240.04 409.77 1241.54 409.77C1243.04 409.77 1243.04 406.769 1242.54 406.27Z" fill="#F7F5F3" stroke="#2E2E2C" stroke-width="2" stroke-linejoin="round"/>
</g>
<g id="ring_5">
<path id="Ellipse 41_5" d="M1271.04 418.27C1273.76 418.27 1276.04 420.69 1276.04 423.77C1276.04 426.849 1273.76 429.27 1271.04 429.27C1268.32 429.27 1266.04 426.849 1266.04 423.77C1266.04 420.69 1268.32 418.27 1271.04 418.27Z" fill="#242624" stroke="#1A1A19"/>
<path id="Vector 187_5" d="M1272.54 420.27C1272.25 419.987 1269.73 419.77 1269.04 415.27C1267.04 402.27 1272.54 393.27 1279.54 392.77C1285.37 392.353 1285.71 401.465 1285.04 404.77L1288.54 406.27C1291.04 397.27 1286.55 388.536 1279.54 388.77C1264.54 389.27 1263.54 409.77 1265.04 416.27C1266.25 421.517 1270.04 423.77 1271.54 423.77C1273.04 423.77 1273.04 420.769 1272.54 420.27Z" fill="#F7F5F3" stroke="#2E2E2C" stroke-width="2" stroke-linejoin="round"/>
</g>
<path id="Vector 192" d="M1154.03 410.765L1133.53 522.265" stroke="#2E2E2C" stroke-width="2" stroke-linejoin="round"/>
<path id="Vector 193" d="M1176.03 419.765L1155.53 532.765" stroke="#2E2E2C" stroke-width="2" stroke-linejoin="round"/>
<path id="Vector 194" d="M1198.03 430.765L1177.53 543.765" stroke="#2E2E2C" stroke-width="2" stroke-linejoin="round"/>
<path id="Vector 195" d="M1220.03 439.765L1199.53 552.765" stroke="#2E2E2C" stroke-width="2" stroke-linejoin="round"/>
<path id="Vector 196" d="M1242.53 450.265L1221.53 563.765" stroke="#2E2E2C" stroke-width="2" stroke-linejoin="round"/>
<path id="Vector 188" d="M1111.03 513.265L1133.03 400.265L1266.53 460.765L1244.03 573.765L1111.03 513.265Z" stroke="#2E2E2C" stroke-width="2" stroke-linejoin="round"/>
<path id="Vector 189" d="M1128.03 428.265L1260.53 488.765" stroke="#2E2E2C" stroke-width="2" stroke-linejoin="round"/>
<path id="Vector 190" d="M1121.53 456.765L1255.03 517.265" stroke="#2E2E2C" stroke-width="2" stroke-linejoin="round"/>
<path id="Vector 191" d="M1115.53 483.765L1249.03 544.265" stroke="#2E2E2C" stroke-width="2" stroke-linejoin="round"/>
</g>
<g id="book">
<path id="shadow_6" d="M731.259 828.535L274.04 651.107C271.158 649.989 270.58 646.164 273.002 644.243L488.046 473.741C490.519 471.78 493.839 471.258 496.794 472.365L656.369 532.146C657.113 532.424 657.716 532.987 658.046 533.71L669.274 558.325C669.967 559.843 671.764 560.505 673.275 559.798L700.398 547.111C701.123 546.772 701.954 546.737 702.706 547.014L939.964 634.399C942.06 635.171 942.607 637.88 940.976 639.405L740.662 826.718C738.137 829.08 734.482 829.786 731.259 828.535Z" fill="#EFE9E4"/>
<g id="book-base">
<path id="Vector 84" d="M943.531 620.765C943.531 621.945 942.778 622.732 942.477 622.933L942.406 622.98L942.344 623.039C909.844 653.788 860.845 700.088 819.471 739.049C798.784 758.53 780.003 776.176 766.146 789.126C759.216 795.602 753.519 800.902 749.43 804.67C747.385 806.555 745.744 808.054 744.554 809.125C743.333 810.223 742.645 810.815 742.458 810.946C740.727 812.158 738.497 812.45 736.307 812.256C734.124 812.064 732.112 811.399 730.954 810.859L730.924 810.845L730.893 810.833L671.495 787.825C649.604 779.348 626.663 770.468 605.792 762.395C584.921 754.322 566.12 747.057 552.513 741.809C545.709 739.185 540.203 737.066 536.385 735.602C534.476 734.87 532.988 734.302 531.971 733.917C531.462 733.724 531.07 733.576 530.8 733.476C530.666 733.426 530.558 733.387 530.48 733.36C530.443 733.347 530.406 733.334 530.374 733.324C530.359 733.319 530.337 733.311 530.312 733.304C530.298 733.3 530.268 733.293 530.249 733.289C530.215 733.282 530.108 733.268 530.031 733.265H529.819L529.625 733.351C525.137 735.346 521.004 737.041 515.852 737.647C510.704 738.253 504.465 737.777 495.806 735.303C482.234 731.425 475.591 719.765 473.988 714.475L473.849 714.013L473.399 713.835L415.536 690.936C351.436 665.577 277.681 636.429 275.848 635.817C273.999 635.201 273.531 633.507 273.531 632.765V624.883C274.269 625.495 275.066 625.939 275.638 626.184L275.652 626.191L275.668 626.197L480.147 705.994C480.658 708.78 481.498 712.946 483.964 717.224C486.576 721.757 490.983 726.368 498.634 729.683C504.925 732.409 511.357 731.824 516.781 730.041C521.876 728.365 526.154 725.609 528.731 723.417C593.436 748.663 723.381 799.403 730.15 802.19C737.227 805.104 742.038 802.827 743.731 800.978C809.388 739.821 941.222 616.989 943.238 614.972C943.34 614.87 943.437 614.769 943.531 614.668V620.765Z" fill="#597769" stroke="#2E2E2C" stroke-width="2"/>
<path id="Vector 81" d="M733.259 802.719L276.04 625.291C273.158 624.173 272.58 620.348 275.002 618.428L490.046 447.925C492.519 445.964 495.839 445.442 498.794 446.55L658.369 506.33C659.113 506.609 659.716 507.171 660.046 507.894L671.274 532.509C671.967 534.027 673.764 534.689 675.275 533.982L702.398 521.295C703.123 520.956 703.954 520.921 704.706 521.198L941.964 608.583C944.06 609.355 944.607 612.064 942.976 613.589L742.662 800.902C740.137 803.264 736.482 803.97 733.259 802.719Z" fill="#80A594" stroke="#2E2E2C" stroke-width="2"/>
<path id="Vector 82" d="M499.531 728.265C486.031 723.265 481.531 713.265 481.531 705.265L526.531 722.765C522.031 726.765 510.531 732.339 499.531 728.265Z" fill="#2C2B29" stroke="#2E2E2C" stroke-width="2"/>
</g>
<g id="book-left">
<path id="Vector 85" d="M434.531 676.449C457.731 684.849 475.198 699.283 481.031 705.449C485.431 695.849 496.865 694.783 502.031 695.449L673.031 532.949C618.231 449.349 528.198 436.116 490.031 439.949L313.031 580.949L293.531 593.449V614.449L289.531 617.949C328.198 633.949 411.331 668.049 434.531 676.449Z" fill="#F8F5F3" stroke="#2E2E2C" stroke-width="2"/>
<path id="Vector 86" d="M295.031 594.449C339.198 596.949 438.931 618.349 484.531 683.949M310.531 612.949C350.698 619.949 439.831 645.149 475.031 689.949" stroke="#2E2E2C" stroke-width="2" stroke-linecap="round"/>
</g>
<g id="book-right">
<g id="Vector 87">
<path d="M521.531 718.949C517.931 705.749 507.698 698.449 503.031 696.449L674.031 533.949C758.831 486.749 876.365 546.765 924.031 582.265L732.031 758.949L735.031 790.949C690.031 773.783 594.531 737.149 572.531 727.949C550.531 718.749 529.365 718.116 521.531 718.949Z" fill="#F3EFEC"/>
<path d="M503.031 696.449L502.342 695.724L501.242 696.77L502.637 697.368L503.031 696.449ZM521.531 718.949L520.566 719.212L520.79 720.034L521.637 719.944L521.531 718.949ZM735.031 790.949L734.675 791.884L736.177 792.457L736.027 790.856L735.031 790.949ZM732.031 758.949L731.354 758.213L730.989 758.549L731.036 759.043L732.031 758.949ZM924.031 582.265L924.708 583.001C924.927 582.799 925.045 582.511 925.03 582.213C925.014 581.916 924.867 581.641 924.629 581.463L924.031 582.265ZM674.031 533.949L673.545 533.076L673.434 533.137L673.342 533.224L674.031 533.949ZM503.031 696.449L502.637 697.368C507.097 699.28 517.066 706.376 520.566 719.212L521.531 718.949L522.496 718.686C518.797 705.123 508.299 697.619 503.425 695.53L503.031 696.449ZM521.531 718.949L521.637 719.944C529.32 719.126 550.316 719.743 572.145 728.872L572.531 727.949L572.917 727.027C550.747 717.755 529.409 717.106 521.425 717.955L521.531 718.949ZM572.531 727.949L572.145 728.872C594.164 738.08 689.685 774.721 734.675 791.884L735.031 790.949L735.388 790.015C690.378 772.844 594.898 736.219 572.917 727.027L572.531 727.949ZM735.031 790.949L736.027 790.856L733.027 758.856L732.031 758.949L731.036 759.043L734.036 791.043L735.031 790.949ZM732.031 758.949L732.708 759.685L924.708 583.001L924.031 582.265L923.354 581.529L731.354 758.213L732.031 758.949ZM924.031 582.265L924.629 581.463C900.718 563.655 859.313 539.716 813.239 526.136C767.18 512.56 716.282 509.288 673.545 533.076L674.031 533.949L674.518 534.823C716.58 511.411 766.849 514.547 812.674 528.054C858.483 541.556 899.678 565.375 923.434 583.067L924.031 582.265ZM674.031 533.949L673.342 533.224L502.342 695.724L503.031 696.449L503.72 697.174L674.72 534.674L674.031 533.949Z" fill="#2E2E2C"/>
</g>
<path id="Vector 88" d="M924.031 613.449L735.531 791.449L732.031 759.449L924.031 582.062V613.449Z" fill="#F7F5F3" stroke="#2E2E2C" stroke-width="2" stroke-linecap="round" stroke-linejoin="round"/>
<path id="Vector 89" d="M911.531 610.949L823.531 692.949" stroke="#2E2E2C" stroke-width="2" stroke-linecap="round"/>
<path id="Vector 90" d="M522.031 700.949C537.031 693.282 581.431 684.949 639.031 712.949C696.631 740.949 726.031 755.283 733.531 758.949" stroke="#2E2E2C" stroke-width="2" stroke-linecap="round"/>
<path id="Vector 91" d="M531.531 709.449C549.198 708.116 596.031 711.249 642.031 734.449C699.531 763.449 715.531 770.949 720.031 773.949" stroke="#2E2E2C" stroke-width="2" stroke-linecap="round"/>
</g>
<path id="tag" d="M554.031 761.449L583.031 714.449C590.031 714.449 616.031 722.949 615.031 722.949C614.231 722.949 595.031 758.282 585.531 775.949L576.031 758.949L554.031 761.449Z" fill="#7DA492" stroke="#2E2E2C" stroke-width="2" stroke-linecap="round"/>
<g id="page-left">
<path id="page-left-paper" d="M436.031 614.949C470.031 631.749 494.198 675.616 502.031 695.449C513.031 681.449 558.031 638.449 562.531 634.449C566.131 631.249 637.365 566.116 672.531 533.949C635.331 439.549 529.698 420.616 481.531 422.949L299.031 576.949C339.531 576.949 393.531 593.949 436.031 614.949Z" fill="#F8F5F3" stroke="#2E2E2C" stroke-width="2" stroke-linecap="round"/>
<g id="page-left-content">
<path id="Vector 93" d="M594.031 490.449C603.698 497.616 624.431 515.249 630.031 528.449M578.031 504.449C586.031 509.616 604.331 524.449 613.531 542.449M563.531 519.949C571.698 525.949 590.031 541.849 598.031 557.449M547.031 534.449C555.365 540.783 573.831 557.049 581.031 571.449M423.531 509.949C442.365 513.449 485.331 524.149 506.531 538.949C533.031 557.449 547.531 569.449 559.531 590.949M406.531 523.949C439.365 527.449 512.131 549.249 540.531 608.449M391.531 535.449C416.031 537.949 466.031 551.949 486.031 571.449" stroke="#BDB8B3" stroke-width="2" stroke-linecap="round"/>
<path id="Vector 94" d="M521.169 626.956C521.449 627.432 522.062 627.591 522.538 627.311C523.014 627.031 523.173 626.418 522.893 625.942L522.031 626.449L521.169 626.956ZM377.031 549.449L376.991 550.448C395.307 551.194 422.685 555.549 449.827 567.119C476.964 578.687 503.808 597.442 521.169 626.956L522.031 626.449L522.893 625.942C505.254 595.956 478.015 576.961 450.611 565.279C423.211 553.599 395.588 549.204 377.072 548.45L377.031 549.449Z" fill="#BDB8B3"/>
<path id="Vector 95" d="M442.031 494.949L495.031 450.449C524.631 452.849 562.365 470.116 577.531 478.449L525.531 525.449C494.731 506.249 457.031 497.116 442.031 494.949Z" fill="#EEEAE5" stroke="#BDB8B3" stroke-width="2"/>
</g>
</g>
<g id="page-right">
<path id="page-right-paper" d="M778.031 504.949C734.431 495.349 689.531 520.616 672.531 534.449L542.531 652.949L502.531 694.949C574.531 631.449 720.531 733.949 726.531 737.449C731.331 740.249 735.865 737.616 737.531 735.949L921.031 557.449C891.531 543.949 821.631 514.549 778.031 504.949Z" fill="#F8F5F3" stroke="#2E2E2C" stroke-width="2"/>
<g id="page-right-content">
<path id="Vector 97" d="M701.031 536.949C718.531 528.783 773.331 523.949 852.531 569.949M683.031 552.449C694.531 549.283 723.331 544.449 746.531 550.449C775.531 557.949 814.031 572.449 834.531 586.449" stroke="#ABA6A1" stroke-width="2" stroke-linecap="round"/>
<path id="Vector 98" d="M668.031 566.449C677.365 564.116 701.431 560.449 723.031 564.449C750.031 569.449 792.531 583.949 817.531 600.949M655.031 578.449C661.698 576.283 681.331 573.249 706.531 578.449C738.031 584.949 772.031 597.449 802.031 616.449M638.531 593.449C643.698 590.949 659.731 586.549 682.531 588.949C711.031 591.949 749.031 605.949 787.031 632.949M616.031 612.949C624.698 610.449 649.531 607.349 679.531 614.949C709.531 622.549 748.698 644.449 764.531 654.449M599.031 629.449C603.531 627.616 617.531 624.849 637.531 628.449C662.531 632.949 694.031 640.949 746.031 672.449M582.531 644.949C585.031 644.283 592.631 642.949 603.031 642.949C616.031 642.949 655.031 641.949 728.531 690.949" stroke="#ABA6A1" stroke-width="2" stroke-linecap="round"/>
</g>
</g>
</g>
</g>
</svg>
